<?xml version="1.0" standalone="no"?>
<!DOCTYPE svg PUBLIC "-//W3C//DTD SVG 20010904//EN"
 "http://www.w3.org/TR/2001/REC-SVG-20010904/DTD/svg10.dtd">
<svg version="1.0" xmlns="http://www.w3.org/2000/svg"
 width="3334.000000pt" height="3334.000000pt" viewBox="0 0 3334.000000 3334.000000"
 preserveAspectRatio="xMidYMid meet">
<metadata>
Created by potrace 1.14, written by Peter Selinger 2001-2017
</metadata>
<g transform="translate(0.000000,3334.000000) scale(0.100000,-0.100000)"
fill="#000000" stroke="none">
<path d="M0 16665 l0 -16665 16670 0 16670 0 0 16665 0 16665 -16670 0 -16670
0 0 -16665z m27556 9098 c-20 -175 -1614 -12095 -1618 -12099 -10 -9 -20152
-6154 -20157 -6149 -4 5 2412 18225 2424 18283 l5 22 9676 0 9677 0 -7 -57z"/>
<path d="M9415 24428 c-14 -65 -1987 -14959 -1982 -14964 5 -5 17246 5251
17256 5261 7 7 1300 9709 1295 9717 -3 4 -3731 8 -8284 8 l-8280 0 -5 -22z
m14675 -1634 c0 -4 -108 -823 -240 -1820 -132 -998 -240 -1821 -240 -1829 0
-13 -738 -15 -6620 -15 -5289 0 -6620 3 -6620 13 0 6 108 828 240 1826 132
997 240 1817 240 1822 0 5 2719 9 6620 9 3641 0 6620 -3 6620 -6z m-8337
-7326 c-133 -1001 -244 -1822 -245 -1823 -16 -9 -6100 -1857 -6103 -1853 -2 2
157 1235 355 2739 198 1503 360 2740 360 2747 0 9 594 12 2938 12 l2938 0
-243 -1822z m7607 1810 c0 -24 -168 -1279 -172 -1283 -9 -9 -5721 -1746 -5726
-1741 -4 5 378 2929 394 3009 l6 27 2749 0 c2193 0 2749 -3 2749 -12z"/>
</g>
</svg>
